<svg xmlns="http://www.w3.org/2000/svg" width="96" height="96" viewBox="0 0 96 96"><title>gold-quatrefoil-vine adapted corner</title><path d="M96 48 A48 48 0 0 0 48 96" fill="none" stroke="#43132f" stroke-width="3" stroke-linejoin="round" stroke-linecap="round"/><g transform="translate(66 66)"><g transform="rotate(45.0)"><path d="M0 0 C-15 -4.5 -11.25 -19.5 0 -15 C11.25 -19.5 15 -4.5 0 0Z" fill="#c7a154" stroke="#43132f" stroke-width="2" stroke-linejoin="round" stroke-linecap="round"/></g><g transform="rotate(135.0)"><path d="M0 0 C-15 -4.5 -11.25 -19.5 0 -15 C11.25 -19.5 15 -4.5 0 0Z" fill="#c7a154" stroke="#43132f" stroke-width="2" stroke-linejoin="round" stroke-linecap="round"/></g><g transform="rotate(225.0)"><path d="M0 0 C-15 -4.5 -11.25 -19.5 0 -15 C11.25 -19.5 15 -4.5 0 0Z" fill="#c7a154" stroke="#43132f" stroke-width="2" stroke-linejoin="round" stroke-linecap="round"/></g><g transform="rotate(315.0)"><path d="M0 0 C-15 -4.5 -11.25 -19.5 0 -15 C11.25 -19.5 15 -4.5 0 0Z" fill="#c7a154" stroke="#43132f" stroke-width="2" stroke-linejoin="round" stroke-linecap="round"/></g><circle cx="0" cy="0" r="3.75" fill="#c7a154" stroke="#43132f" stroke-width="1.5"/></g></svg>
