<svg xmlns="http://www.w3.org/2000/svg" width="96" height="256" viewBox="0 0 96 256"><title>interlocking-ribbon rotated repeat tile</title><g transform="matrix(0 1 -1 0 96 0)"><svg xmlns="http://www.w3.org/2000/svg" width="256" height="96" viewBox="0 0 256 96"><title>interlocking-ribbon</title><svg width="256" height="96" viewBox="0 0 256 96" overflow="hidden"><g transform="translate(-256 0)"><rect x="0" y="15" width="256" height="66" fill="#db0034" stroke="none" stroke-width="1" /><path d="M0 18 C32 18 32 66 64 66 C96 66 96 18 128 18 C160 18 160 66 192 66 C224 66 224 18 256 18 L256 40 C224 40 224 80 192 80 C160 80 160 40 128 40 C96 40 96 80 64 80 C32 80 32 40 0 40Z" fill="#c7a154" stroke="none" stroke-width="1" stroke-linejoin="round" stroke-linecap="round" /><path d="M0 18 C32 18 32 66 64 66 C96 66 96 18 128 18 C160 18 160 66 192 66 C224 66 224 18 256 18" fill="none" stroke="#43132f" stroke-width="3" stroke-linejoin="round" stroke-linecap="round" /><path d="M0 40 C32 40 32 80 64 80 C96 80 96 40 128 40 C160 40 160 80 192 80 C224 80 224 40 256 40" fill="none" stroke="#43132f" stroke-width="3" stroke-linejoin="round" stroke-linecap="round" /><path d="M0 15 H256 M0 81 H256" fill="none" stroke="#43132f" stroke-width="3" stroke-linejoin="round" stroke-linecap="round" /></g><g transform="translate(0 0)"><rect x="0" y="15" width="256" height="66" fill="#db0034" stroke="none" stroke-width="1" /><path d="M0 18 C32 18 32 66 64 66 C96 66 96 18 128 18 C160 18 160 66 192 66 C224 66 224 18 256 18 L256 40 C224 40 224 80 192 80 C160 80 160 40 128 40 C96 40 96 80 64 80 C32 80 32 40 0 40Z" fill="#c7a154" stroke="none" stroke-width="1" stroke-linejoin="round" stroke-linecap="round" /><path d="M0 18 C32 18 32 66 64 66 C96 66 96 18 128 18 C160 18 160 66 192 66 C224 66 224 18 256 18" fill="none" stroke="#43132f" stroke-width="3" stroke-linejoin="round" stroke-linecap="round" /><path d="M0 40 C32 40 32 80 64 80 C96 80 96 40 128 40 C160 40 160 80 192 80 C224 80 224 40 256 40" fill="none" stroke="#43132f" stroke-width="3" stroke-linejoin="round" stroke-linecap="round" /><path d="M0 15 H256 M0 81 H256" fill="none" stroke="#43132f" stroke-width="3" stroke-linejoin="round" stroke-linecap="round" /></g><g transform="translate(256 0)"><rect x="0" y="15" width="256" height="66" fill="#db0034" stroke="none" stroke-width="1" /><path d="M0 18 C32 18 32 66 64 66 C96 66 96 18 128 18 C160 18 160 66 192 66 C224 66 224 18 256 18 L256 40 C224 40 224 80 192 80 C160 80 160 40 128 40 C96 40 96 80 64 80 C32 80 32 40 0 40Z" fill="#c7a154" stroke="none" stroke-width="1" stroke-linejoin="round" stroke-linecap="round" /><path d="M0 18 C32 18 32 66 64 66 C96 66 96 18 128 18 C160 18 160 66 192 66 C224 66 224 18 256 18" fill="none" stroke="#43132f" stroke-width="3" stroke-linejoin="round" stroke-linecap="round" /><path d="M0 40 C32 40 32 80 64 80 C96 80 96 40 128 40 C160 40 160 80 192 80 C224 80 224 40 256 40" fill="none" stroke="#43132f" stroke-width="3" stroke-linejoin="round" stroke-linecap="round" /><path d="M0 15 H256 M0 81 H256" fill="none" stroke="#43132f" stroke-width="3" stroke-linejoin="round" stroke-linecap="round" /></g></svg></svg></g></svg>
