<svg xmlns="http://www.w3.org/2000/svg" width="256" height="96" viewBox="0 0 256 96"><title>red-rosette-vine</title><svg width="256" height="96" viewBox="0 0 256 96" overflow="hidden"><g transform="translate(-256 0)"><path d="M0 48 C32 48 32 16 64 16 C96 16 96 48 128 48 C160 48 160 80 192 80 C224 80 224 48 256 48" fill="none" stroke="#43132f" stroke-width="3" stroke-linejoin="round" stroke-linecap="round"/><g transform="translate(55 48)"><g transform="rotate(0.0)"><path d="M0 0 C-20 -6.0 -15.0 -26.0 0 -20 C15.0 -26.0 20 -6.0 0 0Z" fill="#db0034" stroke="#43132f" stroke-width="2" stroke-linejoin="round" stroke-linecap="round"/></g><g transform="rotate(60.0)"><path d="M0 0 C-20 -6.0 -15.0 -26.0 0 -20 C15.0 -26.0 20 -6.0 0 0Z" fill="#db0034" stroke="#43132f" stroke-width="2" stroke-linejoin="round" stroke-linecap="round"/></g><g transform="rotate(120.0)"><path d="M0 0 C-20 -6.0 -15.0 -26.0 0 -20 C15.0 -26.0 20 -6.0 0 0Z" fill="#db0034" stroke="#43132f" stroke-width="2" stroke-linejoin="round" stroke-linecap="round"/></g><g transform="rotate(180.0)"><path d="M0 0 C-20 -6.0 -15.0 -26.0 0 -20 C15.0 -26.0 20 -6.0 0 0Z" fill="#db0034" stroke="#43132f" stroke-width="2" stroke-linejoin="round" stroke-linecap="round"/></g><g transform="rotate(240.0)"><path d="M0 0 C-20 -6.0 -15.0 -26.0 0 -20 C15.0 -26.0 20 -6.0 0 0Z" fill="#db0034" stroke="#43132f" stroke-width="2" stroke-linejoin="round" stroke-linecap="round"/></g><g transform="rotate(300.0)"><path d="M0 0 C-20 -6.0 -15.0 -26.0 0 -20 C15.0 -26.0 20 -6.0 0 0Z" fill="#db0034" stroke="#43132f" stroke-width="2" stroke-linejoin="round" stroke-linecap="round"/></g><circle cx="0" cy="0" r="5.0" fill="#c7a154" stroke="#43132f" stroke-width="1.5"/></g><g transform="translate(182 48)"><g transform="rotate(0.0)"><path d="M0 0 C-20 -6.0 -15.0 -26.0 0 -20 C15.0 -26.0 20 -6.0 0 0Z" fill="#db0034" stroke="#43132f" stroke-width="2" stroke-linejoin="round" stroke-linecap="round"/></g><g transform="rotate(60.0)"><path d="M0 0 C-20 -6.0 -15.0 -26.0 0 -20 C15.0 -26.0 20 -6.0 0 0Z" fill="#db0034" stroke="#43132f" stroke-width="2" stroke-linejoin="round" stroke-linecap="round"/></g><g transform="rotate(120.0)"><path d="M0 0 C-20 -6.0 -15.0 -26.0 0 -20 C15.0 -26.0 20 -6.0 0 0Z" fill="#db0034" stroke="#43132f" stroke-width="2" stroke-linejoin="round" stroke-linecap="round"/></g><g transform="rotate(180.0)"><path d="M0 0 C-20 -6.0 -15.0 -26.0 0 -20 C15.0 -26.0 20 -6.0 0 0Z" fill="#db0034" stroke="#43132f" stroke-width="2" stroke-linejoin="round" stroke-linecap="round"/></g><g transform="rotate(240.0)"><path d="M0 0 C-20 -6.0 -15.0 -26.0 0 -20 C15.0 -26.0 20 -6.0 0 0Z" fill="#db0034" stroke="#43132f" stroke-width="2" stroke-linejoin="round" stroke-linecap="round"/></g><g transform="rotate(300.0)"><path d="M0 0 C-20 -6.0 -15.0 -26.0 0 -20 C15.0 -26.0 20 -6.0 0 0Z" fill="#db0034" stroke="#43132f" stroke-width="2" stroke-linejoin="round" stroke-linecap="round"/></g><circle cx="0" cy="0" r="5.0" fill="#c7a154" stroke="#43132f" stroke-width="1.5"/></g><g transform="translate(45 46) rotate(-70)"><path d="M0 0 C-18.2 -7.8 -14.3 -26 0 -39.0 C5.2 -13.0 16.900000000000002 -5.2 0 0Z" fill="#c7a154" stroke="#43132f" stroke-width="1.8" stroke-linejoin="round" stroke-linecap="round"/><path d="M0 0 Q-4.68 -15.6 0 -33.800000000000004" fill="none" stroke="#fff5df" stroke-width="1" stroke-linejoin="round" stroke-linecap="round"/></g><g transform="translate(105 45) rotate(55)"><path d="M0 0 C-18.2 -7.8 -14.3 -26 0 -39.0 C5.2 -13.0 16.900000000000002 -5.2 0 0Z" fill="#c7a154" stroke="#43132f" stroke-width="1.8" stroke-linejoin="round" stroke-linecap="round"/><path d="M0 0 Q-4.68 -15.6 0 -33.800000000000004" fill="none" stroke="#fff5df" stroke-width="1" stroke-linejoin="round" stroke-linecap="round"/></g><g transform="translate(153 51) rotate(-120)"><path d="M0 0 C-18.2 -7.8 -14.3 -26 0 -39.0 C5.2 -13.0 16.900000000000002 -5.2 0 0Z" fill="#c7a154" stroke="#43132f" stroke-width="1.8" stroke-linejoin="round" stroke-linecap="round"/><path d="M0 0 Q-4.68 -15.6 0 -33.800000000000004" fill="none" stroke="#fff5df" stroke-width="1" stroke-linejoin="round" stroke-linecap="round"/></g><g transform="translate(211 47) rotate(60)"><path d="M0 0 C-18.2 -7.8 -14.3 -26 0 -39.0 C5.2 -13.0 16.900000000000002 -5.2 0 0Z" fill="#c7a154" stroke="#43132f" stroke-width="1.8" stroke-linejoin="round" stroke-linecap="round"/><path d="M0 0 Q-4.68 -15.6 0 -33.800000000000004" fill="none" stroke="#fff5df" stroke-width="1" stroke-linejoin="round" stroke-linecap="round"/></g></g><g transform="translate(0 0)"><path d="M0 48 C32 48 32 16 64 16 C96 16 96 48 128 48 C160 48 160 80 192 80 C224 80 224 48 256 48" fill="none" stroke="#43132f" stroke-width="3" stroke-linejoin="round" stroke-linecap="round"/><g transform="translate(55 48)"><g transform="rotate(0.0)"><path d="M0 0 C-20 -6.0 -15.0 -26.0 0 -20 C15.0 -26.0 20 -6.0 0 0Z" fill="#db0034" stroke="#43132f" stroke-width="2" stroke-linejoin="round" stroke-linecap="round"/></g><g transform="rotate(60.0)"><path d="M0 0 C-20 -6.0 -15.0 -26.0 0 -20 C15.0 -26.0 20 -6.0 0 0Z" fill="#db0034" stroke="#43132f" stroke-width="2" stroke-linejoin="round" stroke-linecap="round"/></g><g transform="rotate(120.0)"><path d="M0 0 C-20 -6.0 -15.0 -26.0 0 -20 C15.0 -26.0 20 -6.0 0 0Z" fill="#db0034" stroke="#43132f" stroke-width="2" stroke-linejoin="round" stroke-linecap="round"/></g><g transform="rotate(180.0)"><path d="M0 0 C-20 -6.0 -15.0 -26.0 0 -20 C15.0 -26.0 20 -6.0 0 0Z" fill="#db0034" stroke="#43132f" stroke-width="2" stroke-linejoin="round" stroke-linecap="round"/></g><g transform="rotate(240.0)"><path d="M0 0 C-20 -6.0 -15.0 -26.0 0 -20 C15.0 -26.0 20 -6.0 0 0Z" fill="#db0034" stroke="#43132f" stroke-width="2" stroke-linejoin="round" stroke-linecap="round"/></g><g transform="rotate(300.0)"><path d="M0 0 C-20 -6.0 -15.0 -26.0 0 -20 C15.0 -26.0 20 -6.0 0 0Z" fill="#db0034" stroke="#43132f" stroke-width="2" stroke-linejoin="round" stroke-linecap="round"/></g><circle cx="0" cy="0" r="5.0" fill="#c7a154" stroke="#43132f" stroke-width="1.5"/></g><g transform="translate(182 48)"><g transform="rotate(0.0)"><path d="M0 0 C-20 -6.0 -15.0 -26.0 0 -20 C15.0 -26.0 20 -6.0 0 0Z" fill="#db0034" stroke="#43132f" stroke-width="2" stroke-linejoin="round" stroke-linecap="round"/></g><g transform="rotate(60.0)"><path d="M0 0 C-20 -6.0 -15.0 -26.0 0 -20 C15.0 -26.0 20 -6.0 0 0Z" fill="#db0034" stroke="#43132f" stroke-width="2" stroke-linejoin="round" stroke-linecap="round"/></g><g transform="rotate(120.0)"><path d="M0 0 C-20 -6.0 -15.0 -26.0 0 -20 C15.0 -26.0 20 -6.0 0 0Z" fill="#db0034" stroke="#43132f" stroke-width="2" stroke-linejoin="round" stroke-linecap="round"/></g><g transform="rotate(180.0)"><path d="M0 0 C-20 -6.0 -15.0 -26.0 0 -20 C15.0 -26.0 20 -6.0 0 0Z" fill="#db0034" stroke="#43132f" stroke-width="2" stroke-linejoin="round" stroke-linecap="round"/></g><g transform="rotate(240.0)"><path d="M0 0 C-20 -6.0 -15.0 -26.0 0 -20 C15.0 -26.0 20 -6.0 0 0Z" fill="#db0034" stroke="#43132f" stroke-width="2" stroke-linejoin="round" stroke-linecap="round"/></g><g transform="rotate(300.0)"><path d="M0 0 C-20 -6.0 -15.0 -26.0 0 -20 C15.0 -26.0 20 -6.0 0 0Z" fill="#db0034" stroke="#43132f" stroke-width="2" stroke-linejoin="round" stroke-linecap="round"/></g><circle cx="0" cy="0" r="5.0" fill="#c7a154" stroke="#43132f" stroke-width="1.5"/></g><g transform="translate(45 46) rotate(-70)"><path d="M0 0 C-18.2 -7.8 -14.3 -26 0 -39.0 C5.2 -13.0 16.900000000000002 -5.2 0 0Z" fill="#c7a154" stroke="#43132f" stroke-width="1.8" stroke-linejoin="round" stroke-linecap="round"/><path d="M0 0 Q-4.68 -15.6 0 -33.800000000000004" fill="none" stroke="#fff5df" stroke-width="1" stroke-linejoin="round" stroke-linecap="round"/></g><g transform="translate(105 45) rotate(55)"><path d="M0 0 C-18.2 -7.8 -14.3 -26 0 -39.0 C5.2 -13.0 16.900000000000002 -5.2 0 0Z" fill="#c7a154" stroke="#43132f" stroke-width="1.8" stroke-linejoin="round" stroke-linecap="round"/><path d="M0 0 Q-4.68 -15.6 0 -33.800000000000004" fill="none" stroke="#fff5df" stroke-width="1" stroke-linejoin="round" stroke-linecap="round"/></g><g transform="translate(153 51) rotate(-120)"><path d="M0 0 C-18.2 -7.8 -14.3 -26 0 -39.0 C5.2 -13.0 16.900000000000002 -5.2 0 0Z" fill="#c7a154" stroke="#43132f" stroke-width="1.8" stroke-linejoin="round" stroke-linecap="round"/><path d="M0 0 Q-4.68 -15.6 0 -33.800000000000004" fill="none" stroke="#fff5df" stroke-width="1" stroke-linejoin="round" stroke-linecap="round"/></g><g transform="translate(211 47) rotate(60)"><path d="M0 0 C-18.2 -7.8 -14.3 -26 0 -39.0 C5.2 -13.0 16.900000000000002 -5.2 0 0Z" fill="#c7a154" stroke="#43132f" stroke-width="1.8" stroke-linejoin="round" stroke-linecap="round"/><path d="M0 0 Q-4.68 -15.6 0 -33.800000000000004" fill="none" stroke="#fff5df" stroke-width="1" stroke-linejoin="round" stroke-linecap="round"/></g></g><g transform="translate(256 0)"><path d="M0 48 C32 48 32 16 64 16 C96 16 96 48 128 48 C160 48 160 80 192 80 C224 80 224 48 256 48" fill="none" stroke="#43132f" stroke-width="3" stroke-linejoin="round" stroke-linecap="round"/><g transform="translate(55 48)"><g transform="rotate(0.0)"><path d="M0 0 C-20 -6.0 -15.0 -26.0 0 -20 C15.0 -26.0 20 -6.0 0 0Z" fill="#db0034" stroke="#43132f" stroke-width="2" stroke-linejoin="round" stroke-linecap="round"/></g><g transform="rotate(60.0)"><path d="M0 0 C-20 -6.0 -15.0 -26.0 0 -20 C15.0 -26.0 20 -6.0 0 0Z" fill="#db0034" stroke="#43132f" stroke-width="2" stroke-linejoin="round" stroke-linecap="round"/></g><g transform="rotate(120.0)"><path d="M0 0 C-20 -6.0 -15.0 -26.0 0 -20 C15.0 -26.0 20 -6.0 0 0Z" fill="#db0034" stroke="#43132f" stroke-width="2" stroke-linejoin="round" stroke-linecap="round"/></g><g transform="rotate(180.0)"><path d="M0 0 C-20 -6.0 -15.0 -26.0 0 -20 C15.0 -26.0 20 -6.0 0 0Z" fill="#db0034" stroke="#43132f" stroke-width="2" stroke-linejoin="round" stroke-linecap="round"/></g><g transform="rotate(240.0)"><path d="M0 0 C-20 -6.0 -15.0 -26.0 0 -20 C15.0 -26.0 20 -6.0 0 0Z" fill="#db0034" stroke="#43132f" stroke-width="2" stroke-linejoin="round" stroke-linecap="round"/></g><g transform="rotate(300.0)"><path d="M0 0 C-20 -6.0 -15.0 -26.0 0 -20 C15.0 -26.0 20 -6.0 0 0Z" fill="#db0034" stroke="#43132f" stroke-width="2" stroke-linejoin="round" stroke-linecap="round"/></g><circle cx="0" cy="0" r="5.0" fill="#c7a154" stroke="#43132f" stroke-width="1.5"/></g><g transform="translate(182 48)"><g transform="rotate(0.0)"><path d="M0 0 C-20 -6.0 -15.0 -26.0 0 -20 C15.0 -26.0 20 -6.0 0 0Z" fill="#db0034" stroke="#43132f" stroke-width="2" stroke-linejoin="round" stroke-linecap="round"/></g><g transform="rotate(60.0)"><path d="M0 0 C-20 -6.0 -15.0 -26.0 0 -20 C15.0 -26.0 20 -6.0 0 0Z" fill="#db0034" stroke="#43132f" stroke-width="2" stroke-linejoin="round" stroke-linecap="round"/></g><g transform="rotate(120.0)"><path d="M0 0 C-20 -6.0 -15.0 -26.0 0 -20 C15.0 -26.0 20 -6.0 0 0Z" fill="#db0034" stroke="#43132f" stroke-width="2" stroke-linejoin="round" stroke-linecap="round"/></g><g transform="rotate(180.0)"><path d="M0 0 C-20 -6.0 -15.0 -26.0 0 -20 C15.0 -26.0 20 -6.0 0 0Z" fill="#db0034" stroke="#43132f" stroke-width="2" stroke-linejoin="round" stroke-linecap="round"/></g><g transform="rotate(240.0)"><path d="M0 0 C-20 -6.0 -15.0 -26.0 0 -20 C15.0 -26.0 20 -6.0 0 0Z" fill="#db0034" stroke="#43132f" stroke-width="2" stroke-linejoin="round" stroke-linecap="round"/></g><g transform="rotate(300.0)"><path d="M0 0 C-20 -6.0 -15.0 -26.0 0 -20 C15.0 -26.0 20 -6.0 0 0Z" fill="#db0034" stroke="#43132f" stroke-width="2" stroke-linejoin="round" stroke-linecap="round"/></g><circle cx="0" cy="0" r="5.0" fill="#c7a154" stroke="#43132f" stroke-width="1.5"/></g><g transform="translate(45 46) rotate(-70)"><path d="M0 0 C-18.2 -7.8 -14.3 -26 0 -39.0 C5.2 -13.0 16.900000000000002 -5.2 0 0Z" fill="#c7a154" stroke="#43132f" stroke-width="1.8" stroke-linejoin="round" stroke-linecap="round"/><path d="M0 0 Q-4.68 -15.6 0 -33.800000000000004" fill="none" stroke="#fff5df" stroke-width="1" stroke-linejoin="round" stroke-linecap="round"/></g><g transform="translate(105 45) rotate(55)"><path d="M0 0 C-18.2 -7.8 -14.3 -26 0 -39.0 C5.2 -13.0 16.900000000000002 -5.2 0 0Z" fill="#c7a154" stroke="#43132f" stroke-width="1.8" stroke-linejoin="round" stroke-linecap="round"/><path d="M0 0 Q-4.68 -15.6 0 -33.800000000000004" fill="none" stroke="#fff5df" stroke-width="1" stroke-linejoin="round" stroke-linecap="round"/></g><g transform="translate(153 51) rotate(-120)"><path d="M0 0 C-18.2 -7.8 -14.3 -26 0 -39.0 C5.2 -13.0 16.900000000000002 -5.2 0 0Z" fill="#c7a154" stroke="#43132f" stroke-width="1.8" stroke-linejoin="round" stroke-linecap="round"/><path d="M0 0 Q-4.68 -15.6 0 -33.800000000000004" fill="none" stroke="#fff5df" stroke-width="1" stroke-linejoin="round" stroke-linecap="round"/></g><g transform="translate(211 47) rotate(60)"><path d="M0 0 C-18.2 -7.8 -14.3 -26 0 -39.0 C5.2 -13.0 16.900000000000002 -5.2 0 0Z" fill="#c7a154" stroke="#43132f" stroke-width="1.8" stroke-linejoin="round" stroke-linecap="round"/><path d="M0 0 Q-4.68 -15.6 0 -33.800000000000004" fill="none" stroke="#fff5df" stroke-width="1" stroke-linejoin="round" stroke-linecap="round"/></g></g></svg></svg>
